<svg xmlns="http://www.w3.org/2000/svg" width="17.999" height="18" viewBox="0 0 17.999 18"><defs><style>.a{fill:#21b845;}</style></defs><path class="a" d="M17.979,11.059,17.188,9l.79-2.06a.563.563,0,0,0-.171-.639L16.094,4.914l-.346-2.179a.564.564,0,0,0-.467-.467L13.1,1.921,11.714.208a.564.564,0,0,0-.639-.171L9.016.828,6.956.038a.559.559,0,0,0-.638.171L4.931,1.923l-2.179.346a.564.564,0,0,0-.467.467L1.938,4.915.225,6.3a.563.563,0,0,0-.171.638L.844,9l-.79,2.06a.563.563,0,0,0,.171.638l1.713,1.388.346,2.179a.564.564,0,0,0,.467.467l2.179.346,1.388,1.713a.56.56,0,0,0,.639.171l2.059-.79,2.06.79a.569.569,0,0,0,.2.037.563.563,0,0,0,.438-.208L13.1,16.078l2.179-.346a.564.564,0,0,0,.467-.467l.346-2.179L17.808,11.7A.564.564,0,0,0,17.979,11.059ZM16.059,9.2l.721,1.879-1.565,1.267a.56.56,0,0,0-.2.349L14.7,14.683,12.71,15a.56.56,0,0,0-.349.2L11.1,16.765l-1.879-.721a.6.6,0,0,0-.2-.037.56.56,0,0,0-.2.037l-1.879.721L5.67,15.2a.56.56,0,0,0-.349-.2l-1.988-.316L3.017,12.7a.56.56,0,0,0-.2-.349L1.251,11.081,1.972,9.2a.562.562,0,0,0,0-.4l-.72-1.88L2.816,5.653a.56.56,0,0,0,.2-.349l.316-1.988L5.321,3a.56.56,0,0,0,.349-.2L6.935,1.235l1.879.721a.565.565,0,0,0,.4,0l1.879-.721L12.361,2.8a.56.56,0,0,0,.349.2l1.988.316.316,1.988a.561.561,0,0,0,.2.349L16.78,6.92,16.059,8.8A.565.565,0,0,0,16.059,9.2Z" transform="translate(-0.017 0)"/><g transform="translate(5.142 3.857)"><path class="a" d="M161.943,128.03a1.928,1.928,0,1,0,1.928,1.928A1.931,1.931,0,0,0,161.943,128.03Zm0,2.571a.643.643,0,1,1,.643-.643A.643.643,0,0,1,161.943,130.6Z" transform="translate(-160.015 -128.03)"/></g><g transform="translate(8.998 10.285)"><path class="a" d="M257.943,288.03a1.928,1.928,0,1,0,1.928,1.928A1.931,1.931,0,0,0,257.943,288.03Zm0,2.571a.643.643,0,1,1,.643-.643A.643.643,0,0,1,257.943,290.6Z" transform="translate(-256.015 -288.03)"/></g><g transform="translate(5.142 3.859)"><path class="a" d="M167.471,128.186a.643.643,0,0,0-.9.149l-6.427,9a.642.642,0,0,0,1.045.747l6.427-9A.642.642,0,0,0,167.471,128.186Z" transform="translate(-160.027 -128.067)"/></g></svg>